<svg width="24" height="24" viewBox="0 0 24 25" fill="none" xmlns="http://www.w3.org/2000/svg">
<path fill-rule="evenodd" clip-rule="evenodd" d="M7.465 1.11074C8.638 1.05449 9.012 1.04199 12 1.04199C14.988 1.04199 15.362 1.05553 16.534 1.11074C17.706 1.16595 18.506 1.36074 19.206 1.64303C19.939 1.93158 20.604 2.38262 21.154 2.96595C21.714 3.53783 22.146 4.22949 22.422 4.99408C22.694 5.72324 22.88 6.55658 22.934 7.77533C22.988 8.99928 23 9.38887 23 12.5003C23 15.6128 22.987 16.0024 22.934 17.2243C22.881 18.443 22.694 19.2764 22.422 20.0055C22.146 20.7702 21.7133 21.463 21.154 22.0357C20.604 22.6191 19.939 23.0691 19.206 23.3566C18.506 23.6399 17.706 23.8337 16.536 23.8899C15.362 23.9462 14.988 23.9587 12 23.9587C9.012 23.9587 8.638 23.9451 7.465 23.8899C6.295 23.8347 5.495 23.6399 4.795 23.3566C4.06092 23.069 3.39582 22.6183 2.846 22.0357C2.28638 21.4635 1.85331 20.771 1.577 20.0066C1.306 19.2774 1.12 18.4441 1.066 17.2253C1.012 16.0014 1 15.6118 1 12.5003C1 9.38783 1.013 8.99824 1.066 7.77741C1.119 6.55658 1.306 5.72324 1.577 4.99408C1.85372 4.22958 2.28712 3.53711 2.847 2.96491C3.39604 2.3821 4.06047 1.931 4.794 1.64303C5.494 1.36074 6.294 1.16699 7.464 1.11074H7.465ZM16.445 3.17324C15.285 3.11803 14.937 3.10658 12 3.10658C9.063 3.10658 8.715 3.11803 7.555 3.17324C6.482 3.22428 5.9 3.41074 5.512 3.56803C4.999 3.77637 4.632 4.02324 4.247 4.42428C3.88205 4.79413 3.60118 5.24437 3.425 5.74199C3.274 6.14616 3.095 6.75241 3.046 7.87012C2.993 9.07845 2.982 9.44095 2.982 12.5003C2.982 15.5597 2.993 15.9222 3.046 17.1305C3.095 18.2482 3.274 18.8545 3.425 19.2587C3.601 19.7555 3.882 20.2066 4.247 20.5764C4.602 20.9566 5.035 21.2493 5.512 21.4326C5.9 21.5899 6.482 21.7764 7.555 21.8274C8.715 21.8826 9.062 21.8941 12 21.8941C14.938 21.8941 15.285 21.8826 16.445 21.8274C17.518 21.7764 18.1 21.5899 18.488 21.4326C19.001 21.2243 19.368 20.9774 19.753 20.5764C20.118 20.2066 20.399 19.7555 20.575 19.2587C20.726 18.8545 20.905 18.2482 20.954 17.1305C21.007 15.9222 21.018 15.5597 21.018 12.5003C21.018 9.44095 21.007 9.07845 20.954 7.87012C20.905 6.75241 20.726 6.14616 20.575 5.74199C20.375 5.20762 20.138 4.82533 19.753 4.42428C19.3979 4.04415 18.9657 3.75159 18.488 3.56803C18.1 3.41074 17.518 3.22428 16.445 3.17324V3.17324ZM10.595 16.0326C11.3797 16.3729 12.2534 16.4188 13.0669 16.1625C13.8805 15.9063 14.5834 15.3638 15.0556 14.6277C15.5278 13.8915 15.7401 13.0075 15.656 12.1265C15.572 11.2455 15.197 10.4222 14.595 9.7972C14.2112 9.3977 13.7472 9.0918 13.2363 8.90152C12.7255 8.71124 12.1804 8.64133 11.6405 8.6968C11.1006 8.75227 10.5792 8.93176 10.1138 9.22234C9.64846 9.51291 9.25074 9.90735 8.9493 10.3773C8.64786 10.8472 8.45019 11.3808 8.37052 11.9399C8.29084 12.4989 8.33115 13.0694 8.48854 13.6102C8.64593 14.1511 8.91648 14.6489 9.28072 15.0677C9.64496 15.4866 10.0938 15.8161 10.595 16.0326ZM8.002 8.33574C8.52702 7.78884 9.15032 7.35502 9.8363 7.05904C10.5223 6.76305 11.2575 6.61071 12 6.61071C12.7425 6.61071 13.4777 6.76305 14.1637 7.05903C14.8497 7.35502 15.473 7.78884 15.998 8.33574C16.523 8.88264 16.9395 9.53191 17.2236 10.2465C17.5078 10.961 17.654 11.7269 17.654 12.5003C17.654 13.2738 17.5078 14.0396 17.2236 14.7542C16.9395 15.4687 16.523 16.118 15.998 16.6649C14.9377 17.7694 13.4995 18.3899 12 18.3899C10.5005 18.3899 9.06234 17.7694 8.002 16.6649C6.94166 15.5604 6.34597 14.0623 6.34597 12.5003C6.34597 10.9383 6.94166 9.44026 8.002 8.33574V8.33574ZM18.908 7.48783C19.0381 7.35998 19.1423 7.20624 19.2143 7.03571C19.2863 6.86519 19.3248 6.68133 19.3274 6.49504C19.33 6.30875 19.2967 6.12381 19.2295 5.95117C19.1622 5.77853 19.0624 5.62169 18.936 5.48995C18.8095 5.35821 18.6589 5.25424 18.4932 5.1842C18.3275 5.11416 18.1499 5.07947 17.9711 5.08218C17.7922 5.0849 17.6157 5.12496 17.452 5.20001C17.2883 5.27505 17.1407 5.38355 17.018 5.51908C16.7793 5.78265 16.6486 6.13274 16.6537 6.49504C16.6588 6.85734 16.7992 7.20332 17.0452 7.45954C17.2911 7.71575 17.6233 7.86202 17.9711 7.8673C18.3189 7.87259 18.655 7.73646 18.908 7.48783V7.48783Z" fill="white"/>
</svg>
