<svg width="24" height="24" viewBox="0 0 27 29" fill="none" xmlns="http://www.w3.org/2000/svg">
<path d="M21.7913 9.99863V10.6028C21.7913 16.6868 17.4938 23.6588 9.63 23.6588C7.30853 23.6642 5.03636 22.9396 3.09375 21.5745C3.43112 21.6237 3.77144 21.6459 4.11187 21.6409C6.03619 21.6466 7.9064 20.9572 9.42188 19.6834C8.52788 19.6693 7.66078 19.3528 6.94381 18.7791C6.22685 18.2053 5.69649 17.4034 5.42812 16.4874C5.69442 16.548 5.96591 16.5784 6.23813 16.578C6.61824 16.5781 6.99664 16.5232 7.36313 16.4149C6.39483 16.2075 5.5237 15.6452 4.89881 14.8242C4.27392 14.0031 3.9341 12.9743 3.9375 11.9138V11.8534C4.52993 12.2089 5.19411 12.4038 5.8725 12.4213C4.96946 11.7831 4.32741 10.7985 4.07755 9.66888C3.82768 8.53922 3.98885 7.34972 4.52813 6.34342C5.60265 7.7629 6.94327 8.92361 8.46284 9.75009C9.98241 10.5766 11.6469 11.0503 13.3481 11.1405C13.2639 10.7976 13.2242 10.4438 13.23 10.0893C13.1983 9.15213 13.4363 8.2273 13.9116 7.44068C14.3868 6.65406 15.0763 6.04388 15.886 5.69323C16.6957 5.34257 17.5864 5.26848 18.4367 5.48104C19.2871 5.6936 20.0558 6.18249 20.6381 6.88113C21.5954 6.67364 22.5136 6.29587 23.355 5.76342C23.0359 6.8457 22.3572 7.764 21.4481 8.34321C22.2973 8.21754 23.1252 7.96115 23.9062 7.58196C23.3402 8.51578 22.624 9.33407 21.7913 9.99863V9.99863Z" stroke="white" stroke-width="2" stroke-linecap="round" stroke-linejoin="round"/>
</svg>
