<svg width="705" height="805" viewBox="0 0 705 805" fill="none" xmlns="http://www.w3.org/2000/svg">
<path d="M609.63 3.6601L801.42 195.45L595.8 401.07L594.39 402.48L595.8 403.89L801.42 609.51L682.46 728.47C663 747.93 637.14 758.64 609.62 758.64C582.1 758.64 556.24 747.93 536.78 728.47L404 595.69L402.59 594.28L401.18 595.69L195.56 801.31L3.77014 609.52L209.39 403.9L210.8 402.49L209.39 401.08L3.77014 195.46L122.73 76.5001C142.19 57.0401 168.05 46.3301 195.57 46.3301C223.09 46.3301 248.95 57.0401 268.41 76.5001L401.19 209.28L402.6 210.69L404.01 209.28L609.63 3.6601ZM609.63 0.830078L402.6 207.86L269.82 75.0801C249.32 54.5801 222.44 44.3201 195.57 44.3201C168.7 44.3201 141.82 54.5701 121.32 75.0801L0.950195 195.45L207.98 402.48L0.950195 609.51L195.57 804.13L402.6 597.1L535.38 729.88C555.88 750.38 582.76 760.64 609.63 760.64C636.5 760.64 663.38 750.39 683.88 729.88L804.25 609.51L597.22 402.48L804.25 195.45L609.63 0.830078Z" fill="#6E46EF"/>
</svg>
