<svg width="24" height="24" viewBox="0 0 20 20" fill="none" xmlns="http://www.w3.org/2000/svg">
<path d="M7.1665 12.3338V11.8338H6.6665H4.99984C4.91143 11.8338 4.82665 11.7987 4.76414 11.7362C4.70162 11.6736 4.6665 11.5889 4.6665 11.5005V8.50045C4.6665 8.41205 4.70162 8.32726 4.76414 8.26475C4.82665 8.20224 4.91143 8.16712 4.99984 8.16712H6.6665H7.1665V7.66712V6.26226C7.2216 5.12875 7.72173 4.06257 8.55851 3.29552C9.39804 2.52595 10.5081 2.1201 11.646 2.1667L11.6563 2.16712H11.6665H14.1665C14.2549 2.16712 14.3397 2.20224 14.4022 2.26475C14.4647 2.32726 14.4998 2.41204 14.4998 2.50045V5.50045C14.4998 5.58886 14.4647 5.67364 14.4022 5.73615C14.3397 5.79866 14.2549 5.83378 14.1665 5.83378H11.6665H11.1665V6.33378V7.66712V8.16712H11.6665L14.1665 8.16713L14.1703 8.1671C14.2218 8.16671 14.2726 8.17825 14.3189 8.2008C14.3642 8.2229 14.4039 8.25498 14.435 8.29462C14.4651 8.33545 14.4854 8.3826 14.4945 8.43249C14.5037 8.4834 14.501 8.53577 14.4865 8.58545L14.4865 8.58544L14.4847 8.59163L13.6516 11.5908C13.6516 11.5908 13.6516 11.5909 13.6516 11.591C13.6314 11.663 13.5876 11.7261 13.5272 11.7702C13.4667 11.8144 13.3931 11.8369 13.3183 11.8341L13.3091 11.8338H13.2998H11.6665H11.1665V12.3338V17.5005C11.1665 17.5889 11.1314 17.6736 11.0689 17.7362C11.0064 17.7987 10.9216 17.8338 10.8332 17.8338H7.49984C7.41143 17.8338 7.32665 17.7987 7.26414 17.7362C7.20162 17.6736 7.1665 17.5889 7.1665 17.5005V12.3338ZM7.83317 16.6671V17.1671H8.33317H9.99984H10.4998V16.6671V11.5005C10.4998 11.412 10.535 11.3273 10.5975 11.2647C10.66 11.2022 10.7448 11.1671 10.8332 11.1671H12.6998H13.0809L13.1819 10.7997L13.5486 9.46636L13.7226 8.83378H13.0665H10.8332C10.7448 8.83378 10.66 8.79867 10.5975 8.73615C10.535 8.67364 10.4998 8.58886 10.4998 8.50045V6.26407C10.5175 5.96911 10.6464 5.69166 10.8609 5.48795C11.0781 5.28162 11.3663 5.16674 11.6659 5.16712H11.6665H13.3332H13.8332V4.66712V3.33378V2.83378H13.3332H11.6812C10.7276 2.77982 9.79053 3.10181 9.0714 3.73105C8.34832 4.36375 7.90387 5.25604 7.83448 6.21434L7.83317 6.23237V6.25045V8.50045C7.83317 8.58886 7.79805 8.67364 7.73554 8.73615C7.67303 8.79867 7.58824 8.83378 7.49984 8.83378H5.83317H5.33317V9.33378V10.6671V11.1671H5.83317H7.49984C7.58824 11.1671 7.67303 11.2022 7.73554 11.2647C7.79805 11.3273 7.83317 11.412 7.83317 11.5005V16.6671Z" stroke="white"/>
</svg>
