<svg width="84" height="85" viewBox="0 0 84 85" fill="none" xmlns="http://www.w3.org/2000/svg">
<path d="M1.58984 63.8606L23.0698 42.3806L1.58984 20.9006L13.3699 9.12061C15.2399 7.25061 17.7199 6.22058 20.3699 6.22058C23.0199 6.22058 25.4999 7.25061 27.3699 9.12061L41.8499 23.6006L63.3298 2.12061L82.1099 20.8906L60.6298 42.3706L82.1099 63.8506L70.3298 75.6306C68.4598 77.5006 65.9798 78.5306 63.3298 78.5306C60.6798 78.5306 58.1998 77.5006 56.3298 75.6306L41.8499 61.1506L20.3699 82.6306L1.59985 63.8606H1.58984Z" fill="#531EBA"/>
<path d="M63.3099 3.54047L80.6699 20.9005L60.6099 40.9604L59.1999 42.3705L60.6099 43.7805L80.6699 63.8405L69.5999 74.9105C67.9199 76.5905 65.6899 77.5104 63.3099 77.5104C60.9299 77.5104 58.6999 76.5805 57.0199 74.9105L43.2499 61.1404L41.8399 59.7305L40.4299 61.1404L20.3699 81.2004L3.00989 63.8405L23.0699 43.7805L24.4799 42.3705L23.0699 40.9604L3.00989 20.9005L14.0799 9.83044C15.7599 8.15044 17.9899 7.23047 20.3699 7.23047C22.7499 7.23047 24.9799 8.16044 26.6599 9.83044L40.4299 23.6005L41.8399 25.0104L43.2499 23.6005L63.3099 3.54047ZM63.3099 0.710449L41.8299 22.1904L28.0599 8.42047C25.9299 6.29047 23.1499 5.23047 20.3599 5.23047C17.5699 5.23047 14.7799 6.29047 12.6599 8.42047L0.169922 20.9105L21.6499 42.3904L0.169922 63.8705L20.3599 84.0605L41.8399 62.5804L55.6099 76.3505C57.7399 78.4805 60.5199 79.5405 63.3099 79.5405C66.0999 79.5405 68.8899 78.4805 71.0099 76.3505L83.4999 63.8605L62.0199 42.3804L83.4999 20.9005L63.3099 0.710449Z" fill="#7D5AED"/>
</svg>
