<svg width="217" height="21" viewBox="0 0 217 21" fill="none" xmlns="http://www.w3.org/2000/svg">
<path d="M215.25 0.880371L207.2 8.93042L200 1.73035C199.53 1.26035 198.78 1.26035 198.31 1.73035L197.46 2.58044L205.51 10.6304L197.46 18.6804L199.15 20.3704L207.2 12.3204L214.4 19.5204C214.87 19.9904 215.62 19.9904 216.09 19.5204L216.94 18.6704L208.89 10.6204L216.94 2.57043L215.25 0.880371Z" fill="#7D5AED"/>
<path d="M181.99 0.880371L173.94 8.93042L166.74 1.73035C166.27 1.26035 165.52 1.26035 165.05 1.73035L164.2 2.58044L172.25 10.6304L164.2 18.6804L165.89 20.3704L173.94 12.3204L181.14 19.5204C181.61 19.9904 182.36 19.9904 182.83 19.5204L183.68 18.6704L175.63 10.6204L183.68 2.57043L181.99 0.880371Z" fill="#7D5AED"/>
<path d="M148.73 0.880371L140.68 8.93042L133.48 1.73035C133.01 1.26035 132.26 1.26035 131.79 1.73035L130.94 2.58044L138.99 10.6304L130.94 18.6804L132.63 20.3704L140.68 12.3204L147.88 19.5204C148.35 19.9904 149.1 19.9904 149.57 19.5204L150.42 18.6704L142.37 10.6204L150.42 2.57043L148.73 0.880371Z" fill="#7D5AED"/>
<path d="M118.13 10.6204H0.530273" stroke="#7D5AED" stroke-width="2" stroke-miterlimit="10"/>
</svg>
