<svg width="351" height="351" viewBox="0 0 351 351" fill="none" xmlns="http://www.w3.org/2000/svg">
<path d="M1.38022 234.87C2.8493 234.87 4.04022 233.679 4.04022 232.21C4.04022 230.741 2.8493 229.55 1.38022 229.55C-0.088859 229.55 -1.27979 230.741 -1.27979 232.21C-1.27979 233.679 -0.088859 234.87 1.38022 234.87Z" fill="#7D5AED"/>
<path d="M1.38022 257.99C2.8493 257.99 4.04022 256.799 4.04022 255.33C4.04022 253.861 2.8493 252.67 1.38022 252.67C-0.088859 252.67 -1.27979 253.861 -1.27979 255.33C-1.27979 256.799 -0.088859 257.99 1.38022 257.99Z" fill="#7D5AED"/>
<path d="M1.38022 281.11C2.8493 281.11 4.04022 279.919 4.04022 278.45C4.04022 276.981 2.8493 275.79 1.38022 275.79C-0.088859 275.79 -1.27979 276.981 -1.27979 278.45C-1.27979 279.919 -0.088859 281.11 1.38022 281.11Z" fill="#7D5AED"/>
<path d="M1.38022 298.91C2.85022 298.91 4.04022 300.1 4.04022 301.57C4.04022 303.04 2.85022 304.23 1.38022 304.23C-0.0897815 304.23 -1.27979 303.04 -1.27979 301.57C-1.27979 300.1 -0.0897815 298.91 1.38022 298.91Z" fill="#7D5AED"/>
<path d="M1.38022 322.03C2.85022 322.03 4.04022 323.22 4.04022 324.69C4.04022 326.16 2.85022 327.35 1.38022 327.35C-0.0897815 327.35 -1.27979 326.16 -1.27979 324.69C-1.27979 323.22 -0.0897815 322.03 1.38022 322.03Z" fill="#7D5AED"/>
<path d="M1.38022 345.16C2.85022 345.16 4.04022 346.35 4.04022 347.82C4.04022 349.29 2.85022 350.48 1.38022 350.48C-0.0897815 350.48 -1.27979 349.29 -1.27979 347.82C-1.27979 346.35 -0.0897815 345.16 1.38022 345.16Z" fill="#7D5AED"/>
<path d="M24.5003 234.87C25.9694 234.87 27.1603 233.679 27.1603 232.21C27.1603 230.741 25.9694 229.55 24.5003 229.55C23.0313 229.55 21.8403 230.741 21.8403 232.21C21.8403 233.679 23.0313 234.87 24.5003 234.87Z" fill="#7D5AED"/>
<path d="M24.5003 257.99C25.9694 257.99 27.1603 256.799 27.1603 255.33C27.1603 253.861 25.9694 252.67 24.5003 252.67C23.0313 252.67 21.8403 253.861 21.8403 255.33C21.8403 256.799 23.0313 257.99 24.5003 257.99Z" fill="#7D5AED"/>
<path d="M24.5003 281.11C25.9694 281.11 27.1603 279.919 27.1603 278.45C27.1603 276.981 25.9694 275.79 24.5003 275.79C23.0313 275.79 21.8403 276.981 21.8403 278.45C21.8403 279.919 23.0313 281.11 24.5003 281.11Z" fill="#7D5AED"/>
<path d="M24.5003 298.91C25.9703 298.91 27.1603 300.1 27.1603 301.57C27.1603 303.04 25.9703 304.23 24.5003 304.23C23.0303 304.23 21.8403 303.04 21.8403 301.57C21.8403 300.1 23.0303 298.91 24.5003 298.91Z" fill="#7D5AED"/>
<path d="M24.5003 322.03C25.9703 322.03 27.1603 323.22 27.1603 324.69C27.1603 326.16 25.9703 327.35 24.5003 327.35C23.0303 327.35 21.8403 326.16 21.8403 324.69C21.8403 323.22 23.0303 322.03 24.5003 322.03Z" fill="#7D5AED"/>
<path d="M24.5003 345.16C25.9703 345.16 27.1603 346.35 27.1603 347.82C27.1603 349.29 25.9703 350.48 24.5003 350.48C23.0303 350.48 21.8403 349.29 21.8403 347.82C21.8403 346.35 23.0303 345.16 24.5003 345.16Z" fill="#7D5AED"/>
<path d="M47.6302 234.87C49.0993 234.87 50.2902 233.679 50.2902 232.21C50.2902 230.741 49.0993 229.55 47.6302 229.55C46.1611 229.55 44.9702 230.741 44.9702 232.21C44.9702 233.679 46.1611 234.87 47.6302 234.87Z" fill="#7D5AED"/>
<path d="M47.6302 257.99C49.0993 257.99 50.2902 256.799 50.2902 255.33C50.2902 253.861 49.0993 252.67 47.6302 252.67C46.1611 252.67 44.9702 253.861 44.9702 255.33C44.9702 256.799 46.1611 257.99 47.6302 257.99Z" fill="#7D5AED"/>
<path d="M47.6302 281.11C49.0993 281.11 50.2902 279.919 50.2902 278.45C50.2902 276.981 49.0993 275.79 47.6302 275.79C46.1611 275.79 44.9702 276.981 44.9702 278.45C44.9702 279.919 46.1611 281.11 47.6302 281.11Z" fill="#7D5AED"/>
<path d="M47.6302 298.91C49.1002 298.91 50.2902 300.1 50.2902 301.57C50.2902 303.04 49.1002 304.23 47.6302 304.23C46.1602 304.23 44.9702 303.04 44.9702 301.57C44.9702 300.1 46.1602 298.91 47.6302 298.91Z" fill="#7D5AED"/>
<path d="M47.6302 322.03C49.1002 322.03 50.2902 323.22 50.2902 324.69C50.2902 326.16 49.1002 327.35 47.6302 327.35C46.1602 327.35 44.9702 326.16 44.9702 324.69C44.9702 323.22 46.1602 322.03 47.6302 322.03Z" fill="#7D5AED"/>
<path d="M47.6302 345.16C49.1002 345.16 50.2902 346.35 50.2902 347.82C50.2902 349.29 49.1002 350.48 47.6302 350.48C46.1602 350.48 44.9702 349.29 44.9702 347.82C44.9702 346.35 46.1602 345.16 47.6302 345.16Z" fill="#7D5AED"/>
<path d="M70.7503 234.87C72.2194 234.87 73.4103 233.679 73.4103 232.21C73.4103 230.741 72.2194 229.55 70.7503 229.55C69.2813 229.55 68.0903 230.741 68.0903 232.21C68.0903 233.679 69.2813 234.87 70.7503 234.87Z" fill="#7D5AED"/>
<path d="M70.7503 257.99C72.2194 257.99 73.4103 256.799 73.4103 255.33C73.4103 253.861 72.2194 252.67 70.7503 252.67C69.2813 252.67 68.0903 253.861 68.0903 255.33C68.0903 256.799 69.2813 257.99 70.7503 257.99Z" fill="#7D5AED"/>
<path d="M70.7503 281.11C72.2194 281.11 73.4103 279.919 73.4103 278.45C73.4103 276.981 72.2194 275.79 70.7503 275.79C69.2813 275.79 68.0903 276.981 68.0903 278.45C68.0903 279.919 69.2813 281.11 70.7503 281.11Z" fill="#7D5AED"/>
<path d="M70.7503 298.91C72.2203 298.91 73.4103 300.1 73.4103 301.57C73.4103 303.04 72.2203 304.23 70.7503 304.23C69.2803 304.23 68.0903 303.04 68.0903 301.57C68.0903 300.1 69.2803 298.91 70.7503 298.91Z" fill="#7D5AED"/>
<path d="M70.7503 322.03C72.2203 322.03 73.4103 323.22 73.4103 324.69C73.4103 326.16 72.2203 327.35 70.7503 327.35C69.2803 327.35 68.0903 326.16 68.0903 324.69C68.0903 323.22 69.2803 322.03 70.7503 322.03Z" fill="#7D5AED"/>
<path d="M68.0901 347.82C68.0901 346.35 69.2801 345.16 70.7501 345.16C72.2201 345.16 73.4101 346.35 73.4101 347.82C73.4101 348.21 73.3201 348.59 73.1601 348.92C71.7901 349.24 70.4201 349.54 69.0401 349.84C68.4601 349.35 68.0801 348.63 68.0801 347.81L68.0901 347.82Z" fill="#7D5AED"/>
<path d="M93.87 234.87C95.339 234.87 96.53 233.679 96.53 232.21C96.53 230.741 95.339 229.55 93.87 229.55C92.4009 229.55 91.21 230.741 91.21 232.21C91.21 233.679 92.4009 234.87 93.87 234.87Z" fill="#7D5AED"/>
<path d="M93.87 257.99C95.339 257.99 96.53 256.799 96.53 255.33C96.53 253.861 95.339 252.67 93.87 252.67C92.4009 252.67 91.21 253.861 91.21 255.33C91.21 256.799 92.4009 257.99 93.87 257.99Z" fill="#7D5AED"/>
<path d="M93.87 281.11C95.339 281.11 96.53 279.919 96.53 278.45C96.53 276.981 95.339 275.79 93.87 275.79C92.4009 275.79 91.21 276.981 91.21 278.45C91.21 279.919 92.4009 281.11 93.87 281.11Z" fill="#7D5AED"/>
<path d="M93.87 298.91C95.34 298.91 96.53 300.1 96.53 301.57C96.53 303.04 95.34 304.23 93.87 304.23C92.4 304.23 91.21 303.04 91.21 301.57C91.21 300.1 92.4 298.91 93.87 298.91Z" fill="#7D5AED"/>
<path d="M93.87 322.03C95.34 322.03 96.53 323.22 96.53 324.69C96.53 326.16 95.34 327.35 93.87 327.35C92.4 327.35 91.21 326.16 91.21 324.69C91.21 323.22 92.4 322.03 93.87 322.03Z" fill="#7D5AED"/>
<path d="M116.99 229.55C118.46 229.55 119.65 230.74 119.65 232.21C119.65 233.68 118.46 234.87 116.99 234.87C115.52 234.87 114.33 233.68 114.33 232.21C114.33 230.74 115.52 229.55 116.99 229.55Z" fill="#7D5AED"/>
<path d="M116.99 252.67C118.46 252.67 119.65 253.86 119.65 255.33C119.65 256.8 118.46 257.99 116.99 257.99C115.52 257.99 114.33 256.8 114.33 255.33C114.33 253.86 115.52 252.67 116.99 252.67Z" fill="#7D5AED"/>
<path d="M116.99 275.79C118.46 275.79 119.65 276.98 119.65 278.45C119.65 279.92 118.46 281.11 116.99 281.11C115.52 281.11 114.33 279.92 114.33 278.45C114.33 276.98 115.52 275.79 116.99 275.79Z" fill="#7D5AED"/>
<path d="M116.99 298.91C118.46 298.91 119.65 300.1 119.65 301.57C119.65 303.04 118.46 304.23 116.99 304.23C115.52 304.23 114.33 303.04 114.33 301.57C114.33 300.1 115.52 298.91 116.99 298.91Z" fill="#7D5AED"/>
<path d="M116.99 322.03C118.46 322.03 119.65 323.22 119.65 324.69C119.65 326.16 118.46 327.35 116.99 327.35C115.52 327.35 114.33 326.16 114.33 324.69C114.33 323.22 115.52 322.03 116.99 322.03Z" fill="#7D5AED"/>
<path d="M140.11 229.55C141.58 229.55 142.77 230.74 142.77 232.21C142.77 233.68 141.58 234.87 140.11 234.87C138.64 234.87 137.45 233.68 137.45 232.21C137.45 230.74 138.64 229.55 140.11 229.55Z" fill="#7D5AED"/>
<path d="M140.11 252.67C141.58 252.67 142.77 253.86 142.77 255.33C142.77 256.8 141.58 257.99 140.11 257.99C138.64 257.99 137.45 256.8 137.45 255.33C137.45 253.86 138.64 252.67 140.11 252.67Z" fill="#7D5AED"/>
<path d="M140.11 275.79C141.58 275.79 142.77 276.98 142.77 278.45C142.77 279.92 141.58 281.11 140.11 281.11C138.64 281.11 137.45 279.92 137.45 278.45C137.45 276.98 138.64 275.79 140.11 275.79Z" fill="#7D5AED"/>
<path d="M140.11 298.91C141.58 298.91 142.77 300.1 142.77 301.57C142.77 303.04 141.58 304.23 140.11 304.23C138.64 304.23 137.45 303.04 137.45 301.57C137.45 300.1 138.64 298.91 140.11 298.91Z" fill="#7D5AED"/>
<path d="M137.45 324.7C137.45 323.23 138.64 322.04 140.11 322.04C141.58 322.04 142.77 323.23 142.77 324.7C142.77 324.83 142.75 324.95 142.73 325.07C141.38 325.7 140.02 326.31 138.66 326.92C137.93 326.45 137.45 325.63 137.45 324.69V324.7Z" fill="#7D5AED"/>
<path d="M163.23 229.55C164.7 229.55 165.89 230.74 165.89 232.21C165.89 233.68 164.7 234.87 163.23 234.87C161.76 234.87 160.57 233.68 160.57 232.21C160.57 230.74 161.76 229.55 163.23 229.55Z" fill="#7D5AED"/>
<path d="M163.23 252.67C164.7 252.67 165.89 253.86 165.89 255.33C165.89 256.8 164.7 257.99 163.23 257.99C161.76 257.99 160.57 256.8 160.57 255.33C160.57 253.86 161.76 252.67 163.23 252.67Z" fill="#7D5AED"/>
<path d="M163.23 275.79C164.7 275.79 165.89 276.98 165.89 278.45C165.89 279.92 164.7 281.11 163.23 281.11C161.76 281.11 160.57 279.92 160.57 278.45C160.57 276.98 161.76 275.79 163.23 275.79Z" fill="#7D5AED"/>
<path d="M163.23 298.91C164.7 298.91 165.89 300.1 165.89 301.57C165.89 303.04 164.7 304.23 163.23 304.23C161.76 304.23 160.57 303.04 160.57 301.57C160.57 300.1 161.76 298.91 163.23 298.91Z" fill="#7D5AED"/>
<path d="M186.35 229.55C187.82 229.55 189.01 230.74 189.01 232.21C189.01 233.68 187.82 234.87 186.35 234.87C184.88 234.87 183.69 233.68 183.69 232.21C183.69 230.74 184.88 229.55 186.35 229.55Z" fill="#7D5AED"/>
<path d="M186.35 252.67C187.82 252.67 189.01 253.86 189.01 255.33C189.01 256.8 187.82 257.99 186.35 257.99C184.88 257.99 183.69 256.8 183.69 255.33C183.69 253.86 184.88 252.67 186.35 252.67Z" fill="#7D5AED"/>
<path d="M186.35 275.79C187.82 275.79 189.01 276.98 189.01 278.45C189.01 279.92 187.82 281.11 186.35 281.11C184.88 281.11 183.69 279.92 183.69 278.45C183.69 276.98 184.88 275.79 186.35 275.79Z" fill="#7D5AED"/>
<path d="M186.35 298.91C187.12 298.91 187.8 299.24 188.29 299.76C186.83 300.71 185.37 301.66 183.89 302.59C183.76 302.28 183.69 301.93 183.69 301.57C183.69 300.1 184.88 298.91 186.35 298.91Z" fill="#7D5AED"/>
<path d="M209.47 -1.65967C210.94 -1.65967 212.13 -0.469664 212.13 1.00034C212.13 2.47034 210.94 3.66034 209.47 3.66034C208 3.66034 206.81 2.47034 206.81 1.00034C206.81 -0.469664 208 -1.65967 209.47 -1.65967Z" fill="#7D5AED"/>
<path d="M209.47 21.4604C210.94 21.4604 212.13 22.6505 212.13 24.1205C212.13 25.5905 210.94 26.7805 209.47 26.7805C208 26.7805 206.81 25.5905 206.81 24.1205C206.81 22.6505 208 21.4604 209.47 21.4604Z" fill="#7D5AED"/>
<path d="M209.47 44.5801C210.94 44.5801 212.13 45.7701 212.13 47.2401C212.13 48.7101 210.94 49.9001 209.47 49.9001C208 49.9001 206.81 48.7101 206.81 47.2401C206.81 45.7701 208 44.5801 209.47 44.5801Z" fill="#7D5AED"/>
<path d="M209.47 67.7104C210.94 67.7104 212.13 68.9005 212.13 70.3705C212.13 71.8405 210.94 73.0305 209.47 73.0305C208 73.0305 206.81 71.8405 206.81 70.3705C206.81 68.9005 208 67.7104 209.47 67.7104Z" fill="#7D5AED"/>
<path d="M209.47 90.8301C210.94 90.8301 212.13 92.0201 212.13 93.4901C212.13 94.9601 210.94 96.1501 209.47 96.1501C208 96.1501 206.81 94.9601 206.81 93.4901C206.81 92.0201 208 90.8301 209.47 90.8301Z" fill="#7D5AED"/>
<path d="M209.47 113.95C210.94 113.95 212.13 115.14 212.13 116.61C212.13 118.08 210.94 119.27 209.47 119.27C208 119.27 206.81 118.08 206.81 116.61C206.81 115.14 208 113.95 209.47 113.95Z" fill="#7D5AED"/>
<path d="M209.47 137.07C210.94 137.07 212.13 138.26 212.13 139.73C212.13 141.2 210.94 142.39 209.47 142.39C208 142.39 206.81 141.2 206.81 139.73C206.81 138.26 208 137.07 209.47 137.07Z" fill="#7D5AED"/>
<path d="M209.47 160.19C210.94 160.19 212.13 161.38 212.13 162.85C212.13 164.32 210.94 165.51 209.47 165.51C208 165.51 206.81 164.32 206.81 162.85C206.81 161.38 208 160.19 209.47 160.19Z" fill="#7D5AED"/>
<path d="M209.47 183.311C210.94 183.311 212.13 184.501 212.13 185.971C212.13 187.441 210.94 188.63 209.47 188.63C208 188.63 206.81 187.441 206.81 185.971C206.81 184.501 208 183.311 209.47 183.311Z" fill="#7D5AED"/>
<path d="M209.47 206.43C210.94 206.43 212.13 207.62 212.13 209.09C212.13 210.56 210.94 211.75 209.47 211.75C208 211.75 206.81 210.56 206.81 209.09C206.81 207.62 208 206.43 209.47 206.43Z" fill="#7D5AED"/>
<path d="M209.47 229.55C210.94 229.55 212.13 230.74 212.13 232.21C212.13 233.68 210.94 234.87 209.47 234.87C208 234.87 206.81 233.68 206.81 232.21C206.81 230.74 208 229.55 209.47 229.55Z" fill="#7D5AED"/>
<path d="M209.47 252.67C210.94 252.67 212.13 253.86 212.13 255.33C212.13 256.8 210.94 257.99 209.47 257.99C208 257.99 206.81 256.8 206.81 255.33C206.81 253.86 208 252.67 209.47 252.67Z" fill="#7D5AED"/>
<path d="M209.47 275.79C210.94 275.79 212.13 276.98 212.13 278.45C212.13 279.92 210.94 281.11 209.47 281.11C208 281.11 206.81 279.92 206.81 278.45C206.81 276.98 208 275.79 209.47 275.79Z" fill="#7D5AED"/>
<path d="M232.59 -1.65967C234.06 -1.65967 235.25 -0.469664 235.25 1.00034C235.25 2.47034 234.06 3.66034 232.59 3.66034C231.12 3.66034 229.93 2.47034 229.93 1.00034C229.93 -0.469664 231.12 -1.65967 232.59 -1.65967Z" fill="#7D5AED"/>
<path d="M232.59 21.4604C234.06 21.4604 235.25 22.6505 235.25 24.1205C235.25 25.5905 234.06 26.7805 232.59 26.7805C231.12 26.7805 229.93 25.5905 229.93 24.1205C229.93 22.6505 231.12 21.4604 232.59 21.4604Z" fill="#7D5AED"/>
<path d="M232.59 44.5801C234.06 44.5801 235.25 45.7701 235.25 47.2401C235.25 48.7101 234.06 49.9001 232.59 49.9001C231.12 49.9001 229.93 48.7101 229.93 47.2401C229.93 45.7701 231.12 44.5801 232.59 44.5801Z" fill="#7D5AED"/>
<path d="M232.59 67.7104C234.06 67.7104 235.25 68.9005 235.25 70.3705C235.25 71.8405 234.06 73.0305 232.59 73.0305C231.12 73.0305 229.93 71.8405 229.93 70.3705C229.93 68.9005 231.12 67.7104 232.59 67.7104Z" fill="#7D5AED"/>
<path d="M232.59 90.8301C234.06 90.8301 235.25 92.0201 235.25 93.4901C235.25 94.9601 234.06 96.1501 232.59 96.1501C231.12 96.1501 229.93 94.9601 229.93 93.4901C229.93 92.0201 231.12 90.8301 232.59 90.8301Z" fill="#7D5AED"/>
<path d="M232.59 119.27C234.059 119.27 235.25 118.079 235.25 116.61C235.25 115.141 234.059 113.95 232.59 113.95C231.121 113.95 229.93 115.141 229.93 116.61C229.93 118.079 231.121 119.27 232.59 119.27Z" fill="#7D5AED"/>
<path d="M232.59 142.39C234.059 142.39 235.25 141.199 235.25 139.73C235.25 138.261 234.059 137.07 232.59 137.07C231.121 137.07 229.93 138.261 229.93 139.73C229.93 141.199 231.121 142.39 232.59 142.39Z" fill="#7D5AED"/>
<path d="M232.59 165.51C234.059 165.51 235.25 164.32 235.25 162.85C235.25 161.381 234.059 160.19 232.59 160.19C231.121 160.19 229.93 161.381 229.93 162.85C229.93 164.32 231.121 165.51 232.59 165.51Z" fill="#7D5AED"/>
<path d="M232.59 188.63C234.059 188.63 235.25 187.44 235.25 185.971C235.25 184.501 234.059 183.311 232.59 183.311C231.121 183.311 229.93 184.501 229.93 185.971C229.93 187.44 231.121 188.63 232.59 188.63Z" fill="#7D5AED"/>
<path d="M232.59 211.75C234.059 211.75 235.25 210.559 235.25 209.09C235.25 207.621 234.059 206.43 232.59 206.43C231.121 206.43 229.93 207.621 229.93 209.09C229.93 210.559 231.121 211.75 232.59 211.75Z" fill="#7D5AED"/>
<path d="M232.59 234.87C234.059 234.87 235.25 233.679 235.25 232.21C235.25 230.741 234.059 229.55 232.59 229.55C231.121 229.55 229.93 230.741 229.93 232.21C229.93 233.679 231.121 234.87 232.59 234.87Z" fill="#7D5AED"/>
<path d="M232.59 257.99C234.059 257.99 235.25 256.799 235.25 255.33C235.25 253.861 234.059 252.67 232.59 252.67C231.121 252.67 229.93 253.861 229.93 255.33C229.93 256.799 231.121 257.99 232.59 257.99Z" fill="#7D5AED"/>
<path d="M255.71 -1.65967C257.18 -1.65967 258.37 -0.469664 258.37 1.00034C258.37 2.47034 257.18 3.66034 255.71 3.66034C254.24 3.66034 253.05 2.47034 253.05 1.00034C253.05 -0.469664 254.24 -1.65967 255.71 -1.65967Z" fill="#7D5AED"/>
<path d="M255.71 21.4604C257.18 21.4604 258.37 22.6505 258.37 24.1205C258.37 25.5905 257.18 26.7805 255.71 26.7805C254.24 26.7805 253.05 25.5905 253.05 24.1205C253.05 22.6505 254.24 21.4604 255.71 21.4604Z" fill="#7D5AED"/>
<path d="M255.71 44.5801C257.18 44.5801 258.37 45.7701 258.37 47.2401C258.37 48.7101 257.18 49.9001 255.71 49.9001C254.24 49.9001 253.05 48.7101 253.05 47.2401C253.05 45.7701 254.24 44.5801 255.71 44.5801Z" fill="#7D5AED"/>
<path d="M255.71 67.7104C257.18 67.7104 258.37 68.9005 258.37 70.3705C258.37 71.8405 257.18 73.0305 255.71 73.0305C254.24 73.0305 253.05 71.8405 253.05 70.3705C253.05 68.9005 254.24 67.7104 255.71 67.7104Z" fill="#7D5AED"/>
<path d="M255.71 90.8301C257.18 90.8301 258.37 92.0201 258.37 93.4901C258.37 94.9601 257.18 96.1501 255.71 96.1501C254.24 96.1501 253.05 94.9601 253.05 93.4901C253.05 92.0201 254.24 90.8301 255.71 90.8301Z" fill="#7D5AED"/>
<path d="M255.71 119.27C257.179 119.27 258.37 118.079 258.37 116.61C258.37 115.141 257.179 113.95 255.71 113.95C254.241 113.95 253.05 115.141 253.05 116.61C253.05 118.079 254.241 119.27 255.71 119.27Z" fill="#7D5AED"/>
<path d="M255.71 142.39C257.179 142.39 258.37 141.199 258.37 139.73C258.37 138.261 257.179 137.07 255.71 137.07C254.241 137.07 253.05 138.261 253.05 139.73C253.05 141.199 254.241 142.39 255.71 142.39Z" fill="#7D5AED"/>
<path d="M255.71 165.51C257.179 165.51 258.37 164.32 258.37 162.85C258.37 161.381 257.179 160.19 255.71 160.19C254.241 160.19 253.05 161.381 253.05 162.85C253.05 164.32 254.241 165.51 255.71 165.51Z" fill="#7D5AED"/>
<path d="M255.71 188.63C257.179 188.63 258.37 187.44 258.37 185.971C258.37 184.501 257.179 183.311 255.71 183.311C254.241 183.311 253.05 184.501 253.05 185.971C253.05 187.44 254.241 188.63 255.71 188.63Z" fill="#7D5AED"/>
<path d="M255.71 211.75C257.179 211.75 258.37 210.559 258.37 209.09C258.37 207.621 257.179 206.43 255.71 206.43C254.241 206.43 253.05 207.621 253.05 209.09C253.05 210.559 254.241 211.75 255.71 211.75Z" fill="#7D5AED"/>
<path d="M255.71 234.87C257.179 234.87 258.37 233.679 258.37 232.21C258.37 230.741 257.179 229.55 255.71 229.55C254.241 229.55 253.05 230.741 253.05 232.21C253.05 233.679 254.241 234.87 255.71 234.87Z" fill="#7D5AED"/>
<path d="M278.83 -1.65967C280.3 -1.65967 281.49 -0.469664 281.49 1.00034C281.49 2.47034 280.3 3.66034 278.83 3.66034C277.36 3.66034 276.17 2.47034 276.17 1.00034C276.17 -0.469664 277.36 -1.65967 278.83 -1.65967Z" fill="#7D5AED"/>
<path d="M278.83 21.4604C280.3 21.4604 281.49 22.6505 281.49 24.1205C281.49 25.5905 280.3 26.7805 278.83 26.7805C277.36 26.7805 276.17 25.5905 276.17 24.1205C276.17 22.6505 277.36 21.4604 278.83 21.4604Z" fill="#7D5AED"/>
<path d="M278.83 44.5801C280.3 44.5801 281.49 45.7701 281.49 47.2401C281.49 48.7101 280.3 49.9001 278.83 49.9001C277.36 49.9001 276.17 48.7101 276.17 47.2401C276.17 45.7701 277.36 44.5801 278.83 44.5801Z" fill="#7D5AED"/>
<path d="M278.83 67.7104C280.3 67.7104 281.49 68.9005 281.49 70.3705C281.49 71.8405 280.3 73.0305 278.83 73.0305C277.36 73.0305 276.17 71.8405 276.17 70.3705C276.17 68.9005 277.36 67.7104 278.83 67.7104Z" fill="#7D5AED"/>
<path d="M278.83 90.8301C280.3 90.8301 281.49 92.0201 281.49 93.4901C281.49 94.9601 280.3 96.1501 278.83 96.1501C277.36 96.1501 276.17 94.9601 276.17 93.4901C276.17 92.0201 277.36 90.8301 278.83 90.8301Z" fill="#7D5AED"/>
<path d="M278.83 119.27C280.299 119.27 281.49 118.079 281.49 116.61C281.49 115.141 280.299 113.95 278.83 113.95C277.361 113.95 276.17 115.141 276.17 116.61C276.17 118.079 277.361 119.27 278.83 119.27Z" fill="#7D5AED"/>
<path d="M278.83 142.39C280.299 142.39 281.49 141.199 281.49 139.73C281.49 138.261 280.299 137.07 278.83 137.07C277.361 137.07 276.17 138.261 276.17 139.73C276.17 141.199 277.361 142.39 278.83 142.39Z" fill="#7D5AED"/>
<path d="M278.83 165.51C280.299 165.51 281.49 164.32 281.49 162.85C281.49 161.381 280.299 160.19 278.83 160.19C277.361 160.19 276.17 161.381 276.17 162.85C276.17 164.32 277.361 165.51 278.83 165.51Z" fill="#7D5AED"/>
<path d="M278.83 188.63C280.299 188.63 281.49 187.44 281.49 185.971C281.49 184.501 280.299 183.311 278.83 183.311C277.361 183.311 276.17 184.501 276.17 185.971C276.17 187.44 277.361 188.63 278.83 188.63Z" fill="#7D5AED"/>
<path d="M278.83 211.75C280.299 211.75 281.49 210.559 281.49 209.09C281.49 207.621 280.299 206.43 278.83 206.43C277.361 206.43 276.17 207.621 276.17 209.09C276.17 210.559 277.361 211.75 278.83 211.75Z" fill="#7D5AED"/>
<path d="M301.95 -1.65967C303.42 -1.65967 304.61 -0.469664 304.61 1.00034C304.61 2.47034 303.42 3.66034 301.95 3.66034C300.48 3.66034 299.29 2.47034 299.29 1.00034C299.29 -0.469664 300.48 -1.65967 301.95 -1.65967Z" fill="#7D5AED"/>
<path d="M301.95 21.4604C303.42 21.4604 304.61 22.6505 304.61 24.1205C304.61 25.5905 303.42 26.7805 301.95 26.7805C300.48 26.7805 299.29 25.5905 299.29 24.1205C299.29 22.6505 300.48 21.4604 301.95 21.4604Z" fill="#7D5AED"/>
<path d="M301.95 44.5801C303.42 44.5801 304.61 45.7701 304.61 47.2401C304.61 48.7101 303.42 49.9001 301.95 49.9001C300.48 49.9001 299.29 48.7101 299.29 47.2401C299.29 45.7701 300.48 44.5801 301.95 44.5801Z" fill="#7D5AED"/>
<path d="M301.95 67.7104C303.42 67.7104 304.61 68.9005 304.61 70.3705C304.61 71.8405 303.42 73.0305 301.95 73.0305C300.48 73.0305 299.29 71.8405 299.29 70.3705C299.29 68.9005 300.48 67.7104 301.95 67.7104Z" fill="#7D5AED"/>
<path d="M301.95 90.8301C303.42 90.8301 304.61 92.0201 304.61 93.4901C304.61 94.9601 303.42 96.1501 301.95 96.1501C300.48 96.1501 299.29 94.9601 299.29 93.4901C299.29 92.0201 300.48 90.8301 301.95 90.8301Z" fill="#7D5AED"/>
<path d="M301.95 119.27C303.419 119.27 304.61 118.079 304.61 116.61C304.61 115.141 303.419 113.95 301.95 113.95C300.481 113.95 299.29 115.141 299.29 116.61C299.29 118.079 300.481 119.27 301.95 119.27Z" fill="#7D5AED"/>
<path d="M301.95 142.39C303.419 142.39 304.61 141.199 304.61 139.73C304.61 138.261 303.419 137.07 301.95 137.07C300.481 137.07 299.29 138.261 299.29 139.73C299.29 141.199 300.481 142.39 301.95 142.39Z" fill="#7D5AED"/>
<path d="M301.95 165.51C303.419 165.51 304.61 164.32 304.61 162.85C304.61 161.381 303.419 160.19 301.95 160.19C300.481 160.19 299.29 161.381 299.29 162.85C299.29 164.32 300.481 165.51 301.95 165.51Z" fill="#7D5AED"/>
<path d="M325.08 -1.65967C326.55 -1.65967 327.74 -0.469664 327.74 1.00034C327.74 2.47034 326.55 3.66034 325.08 3.66034C323.61 3.66034 322.42 2.47034 322.42 1.00034C322.42 -0.469664 323.61 -1.65967 325.08 -1.65967Z" fill="#7D5AED"/>
<path d="M325.08 21.4604C326.55 21.4604 327.74 22.6505 327.74 24.1205C327.74 25.5905 326.55 26.7805 325.08 26.7805C323.61 26.7805 322.42 25.5905 322.42 24.1205C322.42 22.6505 323.61 21.4604 325.08 21.4604Z" fill="#7D5AED"/>
<path d="M325.08 44.5801C326.55 44.5801 327.74 45.7701 327.74 47.2401C327.74 48.7101 326.55 49.9001 325.08 49.9001C323.61 49.9001 322.42 48.7101 322.42 47.2401C322.42 45.7701 323.61 44.5801 325.08 44.5801Z" fill="#7D5AED"/>
<path d="M325.08 67.7104C326.55 67.7104 327.74 68.9005 327.74 70.3705C327.74 71.8405 326.55 73.0305 325.08 73.0305C323.61 73.0305 322.42 71.8405 322.42 70.3705C322.42 68.9005 323.61 67.7104 325.08 67.7104Z" fill="#7D5AED"/>
<path d="M325.08 90.8301C326.55 90.8301 327.74 92.0201 327.74 93.4901C327.74 94.9601 326.55 96.1501 325.08 96.1501C323.61 96.1501 322.42 94.9601 322.42 93.4901C322.42 92.0201 323.61 90.8301 325.08 90.8301Z" fill="#7D5AED"/>
<path d="M325.08 119.27C326.549 119.27 327.74 118.079 327.74 116.61C327.74 115.141 326.549 113.95 325.08 113.95C323.611 113.95 322.42 115.141 322.42 116.61C322.42 118.079 323.611 119.27 325.08 119.27Z" fill="#7D5AED"/>
<path d="M345.54 1.00034C345.54 -0.469664 346.73 -1.65967 348.2 -1.65967C348.94 -1.65967 349.6 -1.35967 350.08 -0.879669C350.08 -0.409669 350.08 0.0603344 350.08 0.530334C350.08 1.32033 350.08 2.10034 350.07 2.88034C349.59 3.36034 348.93 3.66034 348.19 3.66034C346.72 3.66034 345.53 2.47034 345.53 1.00034H345.54Z" fill="#7D5AED"/>
<path d="M345.54 24.1205C345.54 22.6505 346.73 21.4604 348.2 21.4604C348.66 21.4604 349.09 21.5905 349.46 21.7905C349.37 23.4005 349.26 25.0005 349.15 26.6005C348.85 26.7105 348.54 26.7805 348.2 26.7805C346.73 26.7805 345.54 25.5905 345.54 24.1205Z" fill="#7D5AED"/>
<path d="M345.54 47.2505C345.54 46.0705 346.32 45.0805 347.38 44.7305C347.18 46.3205 346.98 47.9005 346.76 49.4805C346.02 49.0105 345.53 48.1805 345.53 47.2505H345.54Z" fill="#7D5AED"/>
<path d="M1.38022 211.75C2.8493 211.75 4.04022 210.559 4.04022 209.09C4.04022 207.621 2.8493 206.43 1.38022 206.43C-0.088859 206.43 -1.27979 207.621 -1.27979 209.09C-1.27979 210.559 -0.088859 211.75 1.38022 211.75Z" fill="#7D5AED"/>
<path d="M24.5003 211.75C25.9694 211.75 27.1603 210.559 27.1603 209.09C27.1603 207.621 25.9694 206.43 24.5003 206.43C23.0313 206.43 21.8403 207.621 21.8403 209.09C21.8403 210.559 23.0313 211.75 24.5003 211.75Z" fill="#7D5AED"/>
<path d="M47.6302 211.75C49.0993 211.75 50.2902 210.559 50.2902 209.09C50.2902 207.621 49.0993 206.43 47.6302 206.43C46.1611 206.43 44.9702 207.621 44.9702 209.09C44.9702 210.559 46.1611 211.75 47.6302 211.75Z" fill="#7D5AED"/>
<path d="M70.7503 188.63C69.8603 188.63 69.0803 188.19 68.5903 187.52C70.1903 186.87 71.7804 186.2 73.3604 185.51C73.3904 185.66 73.4103 185.82 73.4103 185.98C73.4103 187.45 72.2203 188.64 70.7503 188.64V188.63Z" fill="#7D5AED"/>
<path d="M70.7503 211.75C72.2194 211.75 73.4103 210.559 73.4103 209.09C73.4103 207.621 72.2194 206.43 70.7503 206.43C69.2813 206.43 68.0903 207.621 68.0903 209.09C68.0903 210.559 69.2813 211.75 70.7503 211.75Z" fill="#7D5AED"/>
<path d="M93.87 188.63C95.339 188.63 96.53 187.44 96.53 185.971C96.53 184.501 95.339 183.311 93.87 183.311C92.4009 183.311 91.21 184.501 91.21 185.971C91.21 187.44 92.4009 188.63 93.87 188.63Z" fill="#7D5AED"/>
<path d="M93.87 211.75C95.339 211.75 96.53 210.559 96.53 209.09C96.53 207.621 95.339 206.43 93.87 206.43C92.4009 206.43 91.21 207.621 91.21 209.09C91.21 210.559 92.4009 211.75 93.87 211.75Z" fill="#7D5AED"/>
<path d="M116.99 160.19C118.46 160.19 119.65 161.38 119.65 162.85C119.65 164.32 118.46 165.51 116.99 165.51C115.52 165.51 114.33 164.32 114.33 162.85C114.33 161.38 115.52 160.19 116.99 160.19Z" fill="#7D5AED"/>
<path d="M116.99 183.311C118.46 183.311 119.65 184.501 119.65 185.971C119.65 187.441 118.46 188.63 116.99 188.63C115.52 188.63 114.33 187.441 114.33 185.971C114.33 184.501 115.52 183.311 116.99 183.311Z" fill="#7D5AED"/>
<path d="M116.99 206.43C118.46 206.43 119.65 207.62 119.65 209.09C119.65 210.56 118.46 211.75 116.99 211.75C115.52 211.75 114.33 210.56 114.33 209.09C114.33 207.62 115.52 206.43 116.99 206.43Z" fill="#7D5AED"/>
<path d="M142.77 139.73C142.77 141.2 141.58 142.39 140.11 142.39C139.02 142.39 138.08 141.73 137.67 140.79C138.8 139.62 139.92 138.44 141.02 137.24C142.04 137.61 142.77 138.58 142.77 139.73Z" fill="#7D5AED"/>
<path d="M140.11 160.19C141.58 160.19 142.77 161.38 142.77 162.85C142.77 164.32 141.58 165.51 140.11 165.51C138.64 165.51 137.45 164.32 137.45 162.85C137.45 161.38 138.64 160.19 140.11 160.19Z" fill="#7D5AED"/>
<path d="M140.11 183.311C141.58 183.311 142.77 184.501 142.77 185.971C142.77 187.441 141.58 188.63 140.11 188.63C138.64 188.63 137.45 187.441 137.45 185.971C137.45 184.501 138.64 183.311 140.11 183.311Z" fill="#7D5AED"/>
<path d="M140.11 206.43C141.58 206.43 142.77 207.62 142.77 209.09C142.77 210.56 141.58 211.75 140.11 211.75C138.64 211.75 137.45 210.56 137.45 209.09C137.45 207.62 138.64 206.43 140.11 206.43Z" fill="#7D5AED"/>
<path d="M163.23 113.95C164.7 113.95 165.89 115.14 165.89 116.61C165.89 118.08 164.7 119.27 163.23 119.27C161.76 119.27 160.57 118.08 160.57 116.61C160.57 115.14 161.76 113.95 163.23 113.95Z" fill="#7D5AED"/>
<path d="M163.23 137.07C164.7 137.07 165.89 138.26 165.89 139.73C165.89 141.2 164.7 142.39 163.23 142.39C161.76 142.39 160.57 141.2 160.57 139.73C160.57 138.26 161.76 137.07 163.23 137.07Z" fill="#7D5AED"/>
<path d="M163.23 160.19C164.7 160.19 165.89 161.38 165.89 162.85C165.89 164.32 164.7 165.51 163.23 165.51C161.76 165.51 160.57 164.32 160.57 162.85C160.57 161.38 161.76 160.19 163.23 160.19Z" fill="#7D5AED"/>
<path d="M163.23 183.311C164.7 183.311 165.89 184.501 165.89 185.971C165.89 187.441 164.7 188.63 163.23 188.63C161.76 188.63 160.57 187.441 160.57 185.971C160.57 184.501 161.76 183.311 163.23 183.311Z" fill="#7D5AED"/>
<path d="M163.23 206.43C164.7 206.43 165.89 207.62 165.89 209.09C165.89 210.56 164.7 211.75 163.23 211.75C161.76 211.75 160.57 210.56 160.57 209.09C160.57 207.62 161.76 206.43 163.23 206.43Z" fill="#7D5AED"/>
<path d="M188.6 48.66C188.73 48.12 188.87 47.58 188.99 47.04C188.99 47.11 189.01 47.17 189.01 47.24C189.01 47.76 188.85 48.24 188.59 48.66H188.6Z" fill="#7D5AED"/>
<path d="M186.35 67.7104C187.82 67.7104 189.01 68.9005 189.01 70.3705C189.01 71.8405 187.82 73.0305 186.35 73.0305C184.88 73.0305 183.69 71.8405 183.69 70.3705C183.69 68.9005 184.88 67.7104 186.35 67.7104Z" fill="#7D5AED"/>
<path d="M186.35 90.8301C187.82 90.8301 189.01 92.0201 189.01 93.4901C189.01 94.9601 187.82 96.1501 186.35 96.1501C184.88 96.1501 183.69 94.9601 183.69 93.4901C183.69 92.0201 184.88 90.8301 186.35 90.8301Z" fill="#7D5AED"/>
<path d="M186.35 113.95C187.82 113.95 189.01 115.14 189.01 116.61C189.01 118.08 187.82 119.27 186.35 119.27C184.88 119.27 183.69 118.08 183.69 116.61C183.69 115.14 184.88 113.95 186.35 113.95Z" fill="#7D5AED"/>
<path d="M186.35 137.07C187.82 137.07 189.01 138.26 189.01 139.73C189.01 141.2 187.82 142.39 186.35 142.39C184.88 142.39 183.69 141.2 183.69 139.73C183.69 138.26 184.88 137.07 186.35 137.07Z" fill="#7D5AED"/>
<path d="M186.35 160.19C187.82 160.19 189.01 161.38 189.01 162.85C189.01 164.32 187.82 165.51 186.35 165.51C184.88 165.51 183.69 164.32 183.69 162.85C183.69 161.38 184.88 160.19 186.35 160.19Z" fill="#7D5AED"/>
<path d="M186.35 183.311C187.82 183.311 189.01 184.501 189.01 185.971C189.01 187.441 187.82 188.63 186.35 188.63C184.88 188.63 183.69 187.441 183.69 185.971C183.69 184.501 184.88 183.311 186.35 183.311Z" fill="#7D5AED"/>
<path d="M186.35 206.43C187.82 206.43 189.01 207.62 189.01 209.09C189.01 210.56 187.82 211.75 186.35 211.75C184.88 211.75 183.69 210.56 183.69 209.09C183.69 207.62 184.88 206.43 186.35 206.43Z" fill="#7D5AED"/>
</svg>
