<svg width="25" height="24" viewBox="0 0 25 24" fill="none" xmlns="http://www.w3.org/2000/svg">
<path d="M21.9398 11.0499L12.7498 20.2399C11.624 21.3658 10.097 21.9983 8.5048 21.9983C6.91262 21.9983 5.38565 21.3658 4.2598 20.2399C3.13396 19.1141 2.50146 17.5871 2.50146 15.9949C2.50146 14.4027 3.13396 12.8758 4.2598 11.7499L13.4498 2.55992C14.2004 1.80936 15.2183 1.3877 16.2798 1.3877C17.3413 1.3877 18.3592 1.80936 19.1098 2.55992C19.8604 3.31048 20.282 4.32846 20.282 5.38992C20.282 6.45138 19.8604 7.46936 19.1098 8.21992L9.9098 17.4099C9.53452 17.7852 9.02553 17.996 8.4948 17.996C7.96407 17.996 7.45508 17.7852 7.0798 17.4099C6.70452 17.0346 6.49369 16.5256 6.49369 15.9949C6.49369 15.4642 6.70452 14.9552 7.0798 14.5799L15.5698 6.09992" stroke="black" stroke-width="2" stroke-linecap="round" stroke-linejoin="round"/>
</svg>
