<svg width="35" height="38" viewBox="0 0 43 45" fill="none" xmlns="http://www.w3.org/2000/svg">
<path d="M21.5 0.5C9.62298 0.5 0 10.3468 0 22.5C0 34.6532 9.62298 44.5 21.5 44.5C33.377 44.5 43 34.6532 43 22.5C43 10.3468 33.377 0.5 21.5 0.5ZM21.5 9.01613C25.7133 9.01613 29.129 12.5113 29.129 16.8226C29.129 21.1339 25.7133 24.629 21.5 24.629C17.2867 24.629 13.871 21.1339 13.871 16.8226C13.871 12.5113 17.2867 9.01613 21.5 9.01613ZM21.5 39.5323C16.4111 39.5323 11.851 37.1726 8.7994 33.4823C10.4292 30.3419 13.6196 28.1774 17.3387 28.1774C17.5468 28.1774 17.7548 28.2129 17.9542 28.275C19.0813 28.6476 20.2603 28.8871 21.5 28.8871C22.7397 28.8871 23.9274 28.6476 25.0458 28.275C25.2452 28.2129 25.4532 28.1774 25.6613 28.1774C29.3804 28.1774 32.5708 30.3419 34.2006 33.4823C31.149 37.1726 26.5889 39.5323 21.5 39.5323Z" fill="#723DD9" fill-opacity="0.85"/>
</svg>
